<mxfile host="app.diagrams.net" modified="2024-01-24T13:48:21.733Z" agent="Mozilla/5.0 (Windows NT 10.0; Win64; x64) AppleWebKit/537.36 (KHTML, like Gecko) Chrome/120.0.0.0 Safari/537.36" version="23.0.1" etag="GALH38AteR5qLNLsVi0j" type="github">
  <diagram name="Страница — 1" id="Xmej969cfJxzsixYLW9p">
    <mxGraphModel>
      <root>
        <mxCell id="0" />
        <mxCell id="1" parent="0" />
      </root>
    </mxGraphModel>
  </diagram>
</mxfile>
